<svg width="33" height="31" viewBox="0 0 33 31" fill="none" xmlns="http://www.w3.org/2000/svg">
<path d="M11.7969 0.71875C10.3591 0.71875 9.10669 1.53575 8.31119 2.65106C7.51569 3.76638 7.09375 5.20687 7.09375 6.76562C7.09375 8.32438 7.51569 9.76622 8.31119 10.8815C9.10669 11.9968 10.3591 12.8125 11.7969 12.8125C13.2347 12.8125 14.4871 11.9955 15.2826 10.8802C16.0781 9.76488 16.5 8.32438 16.5 6.76562C16.5 5.20687 16.0781 3.76503 15.2826 2.64972C14.4871 1.53441 13.2347 0.71875 11.7969 0.71875ZM16.5 6.76562C16.5 8.32438 16.9219 9.76622 17.7174 10.8815C18.5129 11.9968 19.7667 12.8125 21.2031 12.8125C22.6409 12.8125 23.8933 11.9955 24.6888 10.8802C25.4843 9.76488 25.9062 8.32438 25.9062 6.76562C25.9062 5.20687 25.4843 3.76503 24.6888 2.64972C23.8933 1.53441 22.6409 0.71875 21.2031 0.71875C19.7653 0.71875 18.5129 1.53575 17.7174 2.65106C16.9219 3.76638 16.5 5.20687 16.5 6.76562ZM11.7969 3.40625C12.2161 3.40625 12.6784 3.61587 13.1003 4.20444C13.5169 4.79166 13.8125 5.72691 13.8125 6.76562C13.8125 7.80434 13.5169 8.74094 13.1003 9.32681C12.6784 9.91537 12.2161 10.125 11.7969 10.125C11.3776 10.125 10.9154 9.91537 10.4934 9.32681C10.0769 8.73959 9.78125 7.80434 9.78125 6.76562C9.78125 5.72691 10.0769 4.79031 10.4934 4.20444C10.9154 3.61587 11.3776 3.40625 11.7969 3.40625ZM21.2031 3.40625C21.6224 3.40625 22.0846 3.61587 22.5066 4.20444C22.9231 4.79166 23.2188 5.72691 23.2188 6.76562C23.2188 7.80434 22.9231 8.74094 22.5066 9.32681C22.0846 9.91537 21.6224 10.125 21.2031 10.125C20.7839 10.125 20.3216 9.91537 19.8997 9.32681C19.4831 8.73959 19.1875 7.80434 19.1875 6.76562C19.1875 5.72691 19.4831 4.79031 19.8997 4.20444C20.3216 3.61587 20.7839 3.40625 21.2031 3.40625ZM5.07812 10.125C3.64031 10.125 2.38794 10.942 1.59244 12.0573C0.796938 13.1726 0.375 14.6131 0.375 16.1719C0.375 17.7306 0.796938 19.1725 1.59244 20.2878C2.38794 21.4031 3.64031 22.2188 5.07812 22.2188C6.51594 22.2188 7.76831 21.4018 8.56381 20.2864C9.35931 19.1711 9.78125 17.7306 9.78125 16.1719C9.78125 14.6131 9.35931 13.1713 8.56381 12.056C7.76831 10.9407 6.51594 10.125 5.07812 10.125ZM27.9219 10.125C26.4841 10.125 25.2317 10.942 24.4362 12.0573C23.6407 13.1726 23.2188 14.6131 23.2188 16.1719C23.2188 17.7306 23.6407 19.1725 24.4362 20.2878C25.2317 21.4031 26.4841 22.2188 27.9219 22.2188C29.3597 22.2188 30.6121 21.4018 31.4076 20.2864C32.2031 19.1711 32.625 17.7306 32.625 16.1719C32.625 14.6131 32.2031 13.1713 31.4076 12.056C30.6121 10.9407 29.3597 10.125 27.9219 10.125ZM5.07812 12.8125C5.49738 12.8125 5.95963 13.0221 6.38156 13.6107C6.79813 14.1979 7.09375 15.1332 7.09375 16.1719C7.09375 17.2106 6.79813 18.1472 6.38156 18.7331C5.95963 19.3216 5.49738 19.5312 5.07812 19.5312C4.65887 19.5312 4.19663 19.3216 3.77469 18.7331C3.35813 18.1472 3.0625 17.2106 3.0625 16.1719C3.0625 15.1332 3.35813 14.1966 3.77469 13.6107C4.19663 13.0221 4.65887 12.8125 5.07812 12.8125ZM27.9219 12.8125C28.3411 12.8125 28.8034 13.0221 29.2253 13.6107C29.6419 14.1979 29.9375 15.1332 29.9375 16.1719C29.9375 17.2106 29.6419 18.1472 29.2253 18.7331C28.8034 19.3216 28.3411 19.5312 27.9219 19.5312C27.5026 19.5312 27.0404 19.3216 26.6184 18.7331C26.2019 18.1458 25.9062 17.2106 25.9062 16.1719C25.9062 15.1332 26.2019 14.1966 26.6184 13.6107C27.0404 13.0221 27.5026 12.8125 27.9219 12.8125ZM16.5 15.5C14.7088 15.5 13.4591 16.6623 12.845 17.6836C12.2349 18.7048 11.8587 19.5541 11.5012 19.9088C11.2957 20.1198 9.99894 20.6076 8.64713 21.2969C7.97122 21.6423 7.28994 22.1032 6.71616 22.8087C6.13834 23.5141 5.74866 24.4883 5.74866 25.5808C5.74866 28.1608 7.87178 30.2839 10.4518 30.2839C11.6155 30.2839 12.8302 29.9077 14.0194 29.5718C15.214 29.2278 16.5 28.9375 16.5 28.9375C16.5 28.9375 17.786 29.2277 18.9779 29.5691C20.1684 29.905 21.3832 30.2812 22.5469 30.2812C25.1269 30.2812 27.25 28.1581 27.25 25.5781C27.25 24.5112 26.8563 23.5356 26.2825 22.8503C25.7114 22.161 25.0234 21.735 24.3529 21.3789C23.0091 20.6667 21.6882 20.1023 21.4974 19.9088C21.1749 19.5904 20.8121 18.7129 20.194 17.6863C19.5772 16.6556 18.3006 15.5 16.5 15.5ZM16.5 18.1875C17.3869 18.1875 17.485 18.4025 17.8841 19.069C18.2872 19.7342 18.5882 20.8643 19.5638 21.8412C20.6723 22.943 22.0725 23.1849 23.0924 23.7278C23.6031 23.9992 23.9928 24.2881 24.2266 24.5676C24.459 24.8458 24.5625 25.0997 24.5625 25.5754C24.5625 26.7042 23.6756 27.5911 22.5469 27.5911C22.1572 27.5911 20.9021 27.2954 19.7331 26.9595C18.564 26.6276 17.5965 26.2473 16.5 26.2473C15.4035 26.2473 14.436 26.6276 13.2669 26.9595C12.0979 27.2954 10.8428 27.5911 10.4531 27.5911C9.32438 27.5911 8.4375 26.7042 8.4375 25.5754C8.4375 25.0339 8.55037 24.7558 8.77344 24.4816C8.9965 24.2088 9.40769 23.9387 9.90756 23.6848C10.9073 23.1742 12.2994 22.9726 13.4349 21.8371C14.4199 20.8468 14.7155 19.6804 15.1146 19.022C15.507 18.3635 15.601 18.1821 16.4987 18.1821L16.5 18.1875Z" fill="white"/>
</svg>
