<svg width="57" height="46" viewBox="0 0 57 46" fill="none" xmlns="http://www.w3.org/2000/svg">
<path d="M11.8809 0.695317C12.4651 0.553735 13.0794 0.603079 13.6335 0.836112C14.1877 1.06914 14.6526 1.4736 14.96 1.99017L33.4108 33.0078L34.3799 8.36484C34.4026 7.79559 34.5977 7.24666 34.9393 6.79072C35.2809 6.33479 35.7529 5.99334 36.2928 5.81159C36.8328 5.62983 37.4152 5.61633 37.963 5.77288C38.5107 5.92943 38.9981 6.24864 39.3604 6.68826L46.8454 15.7871L53.246 14.0726C53.9665 13.8796 54.7342 13.9807 55.3802 14.3537C56.0261 14.7267 56.4975 15.341 56.6905 16.0615C56.8835 16.7821 56.7824 17.5497 56.4094 18.1957C56.0364 18.8417 55.422 19.313 54.7015 19.506L46.5514 21.6892C46.0296 21.8289 45.4787 21.8155 44.9645 21.6505C44.4502 21.4855 43.9943 21.1759 43.6513 20.7587L39.7102 15.9678L38.6607 42.7194C38.6369 43.3256 38.4176 43.9078 38.0358 44.3791C37.6539 44.8505 37.1299 45.1858 36.5418 45.3349C35.9538 45.484 35.3333 45.439 34.773 45.2066C34.2126 44.9742 33.7424 44.5669 33.4325 44.0454L14.8016 12.7289L13.8572 28.4556C13.822 29.045 13.6021 29.6083 13.2288 30.0657C12.8555 30.5232 12.3477 30.8516 11.7774 31.0043L3.62723 33.1875C2.90671 33.3805 2.13904 33.2794 1.49307 32.9064C0.847113 32.5334 0.375784 31.9191 0.182775 31.1986C-0.0102345 30.478 0.0908863 29.7104 0.463892 29.0644C0.836897 28.4184 1.45123 27.9471 2.17175 27.7541L8.36369 26.0954L9.73583 3.2615C9.77162 2.6605 9.99932 2.08684 10.3855 1.62491C10.7716 1.16297 11.2958 0.837132 11.8809 0.695317Z" fill="#3E3E3E"/>
</svg>
