<svg width="32" height="32" viewBox="0 0 32 32" fill="none" xmlns="http://www.w3.org/2000/svg">
<path d="M12.0907 4.30425C10.2727 4.10106 8.39398 4.10106 6.57599 4.30425C5.40642 4.43496 4.46068 5.35597 4.32276 6.53521C4.1053 8.39444 4.1053 10.2727 4.32276 12.1319C4.46068 13.3111 5.40642 14.2321 6.57599 14.3629C8.39398 14.5661 10.2727 14.5661 12.0907 14.3629C13.2603 14.2321 14.206 13.3111 14.3439 12.1319C14.5614 10.2727 14.5614 8.39444 14.3439 6.53521C14.206 5.35597 13.2603 4.43496 12.0907 4.30425Z" fill="url(#paint0_linear_59_20543)"/>
<path d="M12.0907 17.6376C10.2727 17.4344 8.39398 17.4344 6.57599 17.6376C5.40642 17.7683 4.46068 18.6893 4.32276 19.8685C4.1053 21.7278 4.1053 23.606 4.32276 25.4652C4.46068 26.6445 5.40642 27.5655 6.57599 27.6962C8.39398 27.8994 10.2727 27.8994 12.0907 27.6962C13.2603 27.5655 14.206 26.6445 14.3439 25.4652C14.5614 23.606 14.5614 21.7278 14.3439 19.8685C14.206 18.6893 13.2603 17.7683 12.0907 17.6376Z" fill="url(#paint1_linear_59_20543)"/>
<path d="M25.424 4.30425C23.6061 4.10106 21.7273 4.10106 19.9093 4.30425C18.7398 4.43496 17.794 5.35597 17.6561 6.53521C17.4387 8.39444 17.4387 10.2727 17.6561 12.1319C17.794 13.3111 18.7398 14.2321 19.9093 14.3629C21.7273 14.5661 23.6061 14.5661 25.424 14.3629C26.5936 14.2321 27.5394 13.3111 27.6773 12.1319C27.8947 10.2727 27.8947 8.39444 27.6773 6.53521C27.5394 5.35597 26.5936 4.43496 25.424 4.30425Z" fill="url(#paint2_linear_59_20543)"/>
<path d="M25.424 17.6376C23.6061 17.4344 21.7273 17.4344 19.9093 17.6376C18.7398 17.7683 17.794 18.6893 17.6561 19.8685C17.4387 21.7278 17.4387 23.606 17.6561 25.4652C17.794 26.6445 18.7398 27.5655 19.9093 27.6962C21.7273 27.8994 23.6061 27.8994 25.424 27.6962C26.5936 27.5655 27.5394 26.6445 27.6773 25.4652C27.8947 23.606 27.8947 21.7278 27.6773 19.8685C27.5394 18.6893 26.5936 17.7683 25.424 17.6376Z" fill="url(#paint3_linear_59_20543)"/>
<rect x="0.5" y="0.5" width="31" height="31" stroke="url(#paint4_linear_59_20543)"/>
<defs>
<linearGradient id="paint0_linear_59_20543" x1="3.17297" y1="16.0002" x2="29.1971" y2="16.0002" gradientUnits="userSpaceOnUse">
<stop stop-color="#6167F2"/>
<stop offset="0.483529" stop-color="#00B5EE"/>
<stop offset="1" stop-color="#55F5FF"/>
</linearGradient>
<linearGradient id="paint1_linear_59_20543" x1="3.17297" y1="16.0002" x2="29.1971" y2="16.0002" gradientUnits="userSpaceOnUse">
<stop stop-color="#6167F2"/>
<stop offset="0.483529" stop-color="#00B5EE"/>
<stop offset="1" stop-color="#55F5FF"/>
</linearGradient>
<linearGradient id="paint2_linear_59_20543" x1="3.17297" y1="16.0002" x2="29.1971" y2="16.0002" gradientUnits="userSpaceOnUse">
<stop stop-color="#6167F2"/>
<stop offset="0.483529" stop-color="#00B5EE"/>
<stop offset="1" stop-color="#55F5FF"/>
</linearGradient>
<linearGradient id="paint3_linear_59_20543" x1="3.17297" y1="16.0002" x2="29.1971" y2="16.0002" gradientUnits="userSpaceOnUse">
<stop stop-color="#6167F2"/>
<stop offset="0.483529" stop-color="#00B5EE"/>
<stop offset="1" stop-color="#55F5FF"/>
</linearGradient>
<linearGradient id="paint4_linear_59_20543" x1="-1.33333" y1="16" x2="33.8333" y2="16" gradientUnits="userSpaceOnUse">
<stop stop-color="#6167F2"/>
<stop offset="0.483529" stop-color="#00B5EE"/>
<stop offset="1" stop-color="#55F5FF"/>
</linearGradient>
</defs>
</svg>
