<svg width="40" height="40" viewBox="0 0 40 40" fill="none" xmlns="http://www.w3.org/2000/svg">
<path d="M0 10C0 8.67392 0.526784 7.40215 1.46447 6.46447C2.40215 5.52678 3.67392 5 5 5H35C36.3261 5 37.5979 5.52678 38.5355 6.46447C39.4732 7.40215 40 8.67392 40 10V30C40 31.3261 39.4732 32.5979 38.5355 33.5355C37.5979 34.4732 36.3261 35 35 35H5C3.67392 35 2.40215 34.4732 1.46447 33.5355C0.526784 32.5979 0 31.3261 0 30V10ZM5 7.5C4.33696 7.5 3.70107 7.76339 3.23223 8.23223C2.76339 8.70107 2.5 9.33696 2.5 10V12.5H37.5V10C37.5 9.33696 37.2366 8.70107 36.7678 8.23223C36.2989 7.76339 35.663 7.5 35 7.5H5ZM37.5 17.5H2.5V30C2.5 30.663 2.76339 31.2989 3.23223 31.7678C3.70107 32.2366 4.33696 32.5 5 32.5H35C35.663 32.5 36.2989 32.2366 36.7678 31.7678C37.2366 31.2989 37.5 30.663 37.5 30V17.5Z" fill="url(#paint0_linear_14_6345)"/>
<path d="M5 25C5 24.337 5.26339 23.7011 5.73223 23.2322C6.20107 22.7634 6.83696 22.5 7.5 22.5H10C10.663 22.5 11.2989 22.7634 11.7678 23.2322C12.2366 23.7011 12.5 24.337 12.5 25V27.5C12.5 28.163 12.2366 28.7989 11.7678 29.2678C11.2989 29.7366 10.663 30 10 30H7.5C6.83696 30 6.20107 29.7366 5.73223 29.2678C5.26339 28.7989 5 28.163 5 27.5V25Z" fill="url(#paint1_linear_14_6345)"/>
<defs>
<linearGradient id="paint0_linear_14_6345" x1="-1.66667" y1="20" x2="42.2917" y2="20" gradientUnits="userSpaceOnUse">
<stop stop-color="#6167F2"/>
<stop offset="0.483529" stop-color="#00B5EE"/>
<stop offset="1" stop-color="#55F5FF"/>
</linearGradient>
<linearGradient id="paint1_linear_14_6345" x1="4.6875" y1="26.25" x2="12.9297" y2="26.25" gradientUnits="userSpaceOnUse">
<stop stop-color="#6167F2"/>
<stop offset="0.483529" stop-color="#00B5EE"/>
<stop offset="1" stop-color="#55F5FF"/>
</linearGradient>
</defs>
</svg>
