<svg width="40" height="40" viewBox="0 0 40 40" fill="none" xmlns="http://www.w3.org/2000/svg">
<g clip-path="url(#clip0_14_6370)">
<path d="M5 5H10V10H5V5Z" fill="url(#paint0_linear_14_6370)"/>
<path d="M15 0V15H0V0H15ZM12.5 2.5H2.5V12.5H12.5V2.5ZM10 30H5V35H10V30Z" fill="url(#paint1_linear_14_6370)"/>
<path d="M15 25V40H0V25H15ZM2.5 27.5V37.5H12.5V27.5H2.5ZM30 5H35V10H30V5Z" fill="url(#paint2_linear_14_6370)"/>
<path d="M25 0V15H40V0H25ZM37.5 2.5V12.5H27.5V2.5H37.5ZM20 2.5V0H22.5V5H20V10H17.5V2.5H20ZM20 15V10H22.5V15H20ZM15 20V17.5H17.5V15H20V20H22.5V17.5H35V20H25V22.5H17.5V20H15ZM15 20V22.5H5V20H2.5V22.5H0V17.5H7.5V20H15ZM40 22.5H37.5V17.5H40V22.5ZM37.5 22.5H35V27.5H40V25H37.5V22.5ZM27.5 22.5H32.5V25H30V27.5H27.5V22.5ZM32.5 30V27.5H30V30H27.5V32.5H22.5V35H30V30H32.5ZM32.5 30H40V32.5H35V35H32.5V30ZM22.5 27.5V30H25V25H17.5V27.5H22.5Z" fill="url(#paint3_linear_14_6370)"/>
<path d="M17.5 30H20V37.5H30V40H17.5V30ZM40 35V40H32.5V37.5H37.5V35H40Z" fill="url(#paint4_linear_14_6370)"/>
</g>
<defs>
<linearGradient id="paint0_linear_14_6370" x1="4.79167" y1="7.5" x2="10.2865" y2="7.5" gradientUnits="userSpaceOnUse">
<stop stop-color="#6167F2"/>
<stop offset="0.483529" stop-color="#00B5EE"/>
<stop offset="1" stop-color="#55F5FF"/>
</linearGradient>
<linearGradient id="paint1_linear_14_6370" x1="-0.625" y1="17.5" x2="15.8594" y2="17.5" gradientUnits="userSpaceOnUse">
<stop stop-color="#6167F2"/>
<stop offset="0.483529" stop-color="#00B5EE"/>
<stop offset="1" stop-color="#55F5FF"/>
</linearGradient>
<linearGradient id="paint2_linear_14_6370" x1="-1.45833" y1="22.5" x2="37.0052" y2="22.5" gradientUnits="userSpaceOnUse">
<stop stop-color="#6167F2"/>
<stop offset="0.483529" stop-color="#00B5EE"/>
<stop offset="1" stop-color="#55F5FF"/>
</linearGradient>
<linearGradient id="paint3_linear_14_6370" x1="-1.66667" y1="17.5" x2="42.2917" y2="17.5" gradientUnits="userSpaceOnUse">
<stop stop-color="#6167F2"/>
<stop offset="0.483529" stop-color="#00B5EE"/>
<stop offset="1" stop-color="#55F5FF"/>
</linearGradient>
<linearGradient id="paint4_linear_14_6370" x1="16.5625" y1="35" x2="41.2891" y2="35" gradientUnits="userSpaceOnUse">
<stop stop-color="#6167F2"/>
<stop offset="0.483529" stop-color="#00B5EE"/>
<stop offset="1" stop-color="#55F5FF"/>
</linearGradient>
<clipPath id="clip0_14_6370">
<rect width="40" height="40" fill="white"/>
</clipPath>
</defs>
</svg>
