<svg width="40" height="36" viewBox="0 0 40 36" fill="none" xmlns="http://www.w3.org/2000/svg">
<path d="M36.6667 2.44434H3.33333C1.49306 2.44434 0 3.93739 0 5.77767V30.2221C0 32.0624 1.49306 33.5554 3.33333 33.5554H36.6667C38.5069 33.5554 40 32.0624 40 30.2221V5.77767C40 3.93739 38.5069 2.44434 36.6667 2.44434ZM36.6667 30.2221H3.33333V5.77767H36.6667V30.2221ZM14.4444 17.9999C16.8958 17.9999 18.8889 16.0068 18.8889 13.5554C18.8889 11.1041 16.8958 9.111 14.4444 9.111C11.9931 9.111 10 11.1041 10 13.5554C10 16.0068 11.9931 17.9999 14.4444 17.9999ZM8.22222 26.8888H20.6667C21.5278 26.8888 22.2222 26.2916 22.2222 25.5554V24.2221C22.2222 22.0138 20.1319 20.2221 17.5556 20.2221C16.8056 20.2221 16.2569 20.7777 14.4444 20.7777C12.5764 20.7777 12.125 20.2221 11.3333 20.2221C8.75694 20.2221 6.66667 22.0138 6.66667 24.2221V25.5554C6.66667 26.2916 7.36111 26.8888 8.22222 26.8888V26.8888ZM25 22.4443H32.7778C33.0833 22.4443 33.3333 22.1943 33.3333 21.8888V20.7777C33.3333 20.4721 33.0833 20.2221 32.7778 20.2221H25C24.6944 20.2221 24.4444 20.4721 24.4444 20.7777V21.8888C24.4444 22.1943 24.6944 22.4443 25 22.4443ZM25 17.9999H32.7778C33.0833 17.9999 33.3333 17.7499 33.3333 17.4443V16.3332C33.3333 16.0277 33.0833 15.7777 32.7778 15.7777H25C24.6944 15.7777 24.4444 16.0277 24.4444 16.3332V17.4443C24.4444 17.7499 24.6944 17.9999 25 17.9999ZM25 13.5554H32.7778C33.0833 13.5554 33.3333 13.3054 33.3333 12.9999V11.8888C33.3333 11.5832 33.0833 11.3332 32.7778 11.3332H25C24.6944 11.3332 24.4444 11.5832 24.4444 11.8888V12.9999C24.4444 13.3054 24.6944 13.5554 25 13.5554Z" fill="url(#paint0_linear_14_6360)"/>
<defs>
<linearGradient id="paint0_linear_14_6360" x1="-1.66667" y1="17.9999" x2="42.2917" y2="17.9999" gradientUnits="userSpaceOnUse">
<stop stop-color="#6167F2"/>
<stop offset="0.483529" stop-color="#00B5EE"/>
<stop offset="1" stop-color="#55F5FF"/>
</linearGradient>
</defs>
</svg>
