<svg width="40" height="40" viewBox="0 0 40 40" fill="none" xmlns="http://www.w3.org/2000/svg">
<g clip-path="url(#clip0_14_6350)">
<path d="M35 7.5C35.663 7.5 36.2989 7.76339 36.7678 8.23223C37.2366 8.70107 37.5 9.33696 37.5 10V30C37.5 30.663 37.2366 31.2989 36.7678 31.7678C36.2989 32.2366 35.663 32.5 35 32.5H5C4.33696 32.5 3.70107 32.2366 3.23223 31.7678C2.76339 31.2989 2.5 30.663 2.5 30V10C2.5 9.33696 2.76339 8.70107 3.23223 8.23223C3.70107 7.76339 4.33696 7.5 5 7.5H35ZM5 5C3.67392 5 2.40215 5.52678 1.46447 6.46447C0.526784 7.40215 0 8.67392 0 10L0 30C0 31.3261 0.526784 32.5979 1.46447 33.5355C2.40215 34.4732 3.67392 35 5 35H35C36.3261 35 37.5979 34.4732 38.5355 33.5355C39.4732 32.5979 40 31.3261 40 30V10C40 8.67392 39.4732 7.40215 38.5355 6.46447C37.5979 5.52678 36.3261 5 35 5H5Z" fill="url(#paint0_linear_14_6350)"/>
<path d="M5 13.75C5 13.4185 5.1317 13.1005 5.36612 12.8661C5.60054 12.6317 5.91848 12.5 6.25 12.5H11.25C11.5815 12.5 11.8995 12.6317 12.1339 12.8661C12.3683 13.1005 12.5 13.4185 12.5 13.75V16.25C12.5 16.5815 12.3683 16.8995 12.1339 17.1339C11.8995 17.3683 11.5815 17.5 11.25 17.5H6.25C5.91848 17.5 5.60054 17.3683 5.36612 17.1339C5.1317 16.8995 5 16.5815 5 16.25V13.75ZM5 21.25C5 20.9185 5.1317 20.6005 5.36612 20.3661C5.60054 20.1317 5.91848 20 6.25 20H18.75C19.0815 20 19.3995 20.1317 19.6339 20.3661C19.8683 20.6005 20 20.9185 20 21.25C20 21.5815 19.8683 21.8995 19.6339 22.1339C19.3995 22.3683 19.0815 22.5 18.75 22.5H6.25C5.91848 22.5 5.60054 22.3683 5.36612 22.1339C5.1317 21.8995 5 21.5815 5 21.25ZM5 26.25C5 25.9185 5.1317 25.6005 5.36612 25.3661C5.60054 25.1317 5.91848 25 6.25 25H8.75C9.08152 25 9.39946 25.1317 9.63388 25.3661C9.8683 25.6005 10 25.9185 10 26.25C10 26.5815 9.8683 26.8995 9.63388 27.1339C9.39946 27.3683 9.08152 27.5 8.75 27.5H6.25C5.91848 27.5 5.60054 27.3683 5.36612 27.1339C5.1317 26.8995 5 26.5815 5 26.25ZM12.5 26.25C12.5 25.9185 12.6317 25.6005 12.8661 25.3661C13.1005 25.1317 13.4185 25 13.75 25H16.25C16.5815 25 16.8995 25.1317 17.1339 25.3661C17.3683 25.6005 17.5 25.9185 17.5 26.25C17.5 26.5815 17.3683 26.8995 17.1339 27.1339C16.8995 27.3683 16.5815 27.5 16.25 27.5H13.75C13.4185 27.5 13.1005 27.3683 12.8661 27.1339C12.6317 26.8995 12.5 26.5815 12.5 26.25ZM20 26.25C20 25.9185 20.1317 25.6005 20.3661 25.3661C20.6005 25.1317 20.9185 25 21.25 25H23.75C24.0815 25 24.3995 25.1317 24.6339 25.3661C24.8683 25.6005 25 25.9185 25 26.25C25 26.5815 24.8683 26.8995 24.6339 27.1339C24.3995 27.3683 24.0815 27.5 23.75 27.5H21.25C20.9185 27.5 20.6005 27.3683 20.3661 27.1339C20.1317 26.8995 20 26.5815 20 26.25ZM27.5 26.25C27.5 25.9185 27.6317 25.6005 27.8661 25.3661C28.1005 25.1317 28.4185 25 28.75 25H31.25C31.5815 25 31.8995 25.1317 32.1339 25.3661C32.3683 25.6005 32.5 25.9185 32.5 26.25C32.5 26.5815 32.3683 26.8995 32.1339 27.1339C31.8995 27.3683 31.5815 27.5 31.25 27.5H28.75C28.4185 27.5 28.1005 27.3683 27.8661 27.1339C27.6317 26.8995 27.5 26.5815 27.5 26.25Z" fill="url(#paint1_linear_14_6350)"/>
</g>
<defs>
<linearGradient id="paint0_linear_14_6350" x1="-1.66667" y1="20" x2="42.2917" y2="20" gradientUnits="userSpaceOnUse">
<stop stop-color="#6167F2"/>
<stop offset="0.483529" stop-color="#00B5EE"/>
<stop offset="1" stop-color="#55F5FF"/>
</linearGradient>
<linearGradient id="paint1_linear_14_6350" x1="3.85417" y1="20" x2="34.0755" y2="20" gradientUnits="userSpaceOnUse">
<stop stop-color="#6167F2"/>
<stop offset="0.483529" stop-color="#00B5EE"/>
<stop offset="1" stop-color="#55F5FF"/>
</linearGradient>
<clipPath id="clip0_14_6350">
<rect width="40" height="40" fill="white"/>
</clipPath>
</defs>
</svg>
