<svg width="32" height="32" viewBox="0 0 32 32" fill="none" xmlns="http://www.w3.org/2000/svg">
<path d="M12.0907 4.304C10.2727 4.10081 8.39398 4.10081 6.57599 4.304C5.40642 4.43472 4.46068 5.35572 4.32276 6.53497C4.1053 8.39419 4.1053 10.2724 4.32276 12.1317C4.46068 13.3109 5.40642 14.2319 6.57599 14.3626C8.39398 14.5658 10.2727 14.5658 12.0907 14.3626C13.2603 14.2319 14.206 13.3109 14.3439 12.1317C14.5614 10.2724 14.5614 8.39419 14.3439 6.53497C14.206 5.35572 13.2603 4.43472 12.0907 4.304Z" fill="white" fill-opacity="0.2"/>
<path d="M12.0907 17.6373C10.2727 17.4341 8.39398 17.4341 6.57599 17.6373C5.40642 17.7681 4.46068 18.6891 4.32276 19.8683C4.1053 21.7275 4.1053 23.6058 4.32276 25.465C4.46068 26.6442 5.40642 27.5652 6.57599 27.696C8.39398 27.8991 10.2727 27.8991 12.0907 27.696C13.2603 27.5652 14.206 26.6442 14.3439 25.465C14.5614 23.6058 14.5614 21.7275 14.3439 19.8683C14.206 18.6891 13.2603 17.7681 12.0907 17.6373Z" fill="white" fill-opacity="0.2"/>
<path d="M25.424 4.304C23.6061 4.10081 21.7273 4.10081 19.9093 4.304C18.7398 4.43472 17.794 5.35572 17.6561 6.53497C17.4387 8.39419 17.4387 10.2724 17.6561 12.1317C17.794 13.3109 18.7398 14.2319 19.9093 14.3626C21.7273 14.5658 23.6061 14.5658 25.424 14.3626C26.5936 14.2319 27.5394 13.3109 27.6773 12.1317C27.8947 10.2724 27.8947 8.39419 27.6773 6.53497C27.5394 5.35572 26.5936 4.43472 25.424 4.304Z" fill="white" fill-opacity="0.2"/>
<path d="M25.424 17.6373C23.6061 17.4341 21.7273 17.4341 19.9093 17.6373C18.7398 17.7681 17.794 18.6891 17.6561 19.8683C17.4387 21.7275 17.4387 23.6058 17.6561 25.465C17.794 26.6442 18.7398 27.5652 19.9093 27.696C21.7273 27.8991 23.6061 27.8991 25.424 27.696C26.5936 27.5652 27.5394 26.6442 27.6773 25.465C27.8947 23.6058 27.8947 21.7275 27.6773 19.8683C27.5394 18.6891 26.5936 17.7681 25.424 17.6373Z" fill="white" fill-opacity="0.2"/>
</svg>
