<svg width="32" height="32" viewBox="0 0 32 32" fill="none" xmlns="http://www.w3.org/2000/svg">
<path d="M25.6891 5.27782C19.245 4.64763 12.7548 4.64763 6.31065 5.27782C5.73102 5.33451 5.24293 5.73203 5.06458 6.28145C4.35347 8.472 4.35347 10.8616 5.06458 13.0521C5.24293 13.6015 5.73102 13.9991 6.31065 14.0558C12.7548 14.6859 19.245 14.6859 25.6891 14.0558C26.2687 13.9991 26.7568 13.6015 26.9352 13.0521C27.6463 10.8616 27.6463 8.472 26.9352 6.28145C26.7568 5.73203 26.2687 5.33451 25.6891 5.27782Z" fill="white" fill-opacity="0.2"/>
<path d="M25.6891 17.9445C19.245 17.3143 12.7548 17.3143 6.31065 17.9445C5.73102 18.0012 5.24293 18.3987 5.06458 18.9481C4.35347 21.1387 4.35347 23.5282 5.06458 25.7188C5.24293 26.2682 5.73102 26.6657 6.31065 26.7224C12.7548 27.3526 19.245 27.3526 25.6891 26.7224C26.2687 26.6657 26.7568 26.2682 26.9352 25.7188C27.6463 23.5282 27.6463 21.1387 26.9352 18.9481C26.7568 18.3987 26.2687 18.0012 25.6891 17.9445Z" fill="white" fill-opacity="0.2"/>
</svg>
