<svg xmlns="http://www.w3.org/2000/svg" xmlns:xlink="http://www.w3.org/1999/xlink">

  <symbol id="arrow" viewBox="0 0 30 17" xmlns="http://www.w3.org/2000/svg">
    <path
      d="M13.5858 16.4142C14.3668 17.1953 15.6332 17.1953 16.4142 16.4142L29.1421 3.68629C29.9232 2.90524 29.9232 1.63891 29.1421 0.857864C28.3611 0.0768156 27.0948 0.0768156 26.3137 0.857864L15 12.1716L3.68629 0.857864C2.90524 0.0768156 1.63891 0.0768156 0.857864 0.857864C0.0768156 1.63891 0.0768156 2.90524 0.857864 3.68629L13.5858 16.4142ZM13 13V15H17V13H13Z" />
  </symbol><!-- fill 0A0F74 -->

  <symbol id="geo" viewBox="0 0 22 26" xmlns="http://www.w3.org/2000/svg">
    <path
      d="M10.9824 7.54394C9.9547 7.54394 8.96908 7.93983 8.24237 8.64452C7.51567 9.34921 7.10741 10.305 7.10741 11.3015C7.10741 12.2981 7.51567 13.2539 8.24237 13.9586C8.96908 14.6633 9.9547 15.0592 10.9824 15.0592C12.0101 15.0592 12.9957 14.6633 13.7225 13.9586C14.4492 13.2539 14.8574 12.2981 14.8574 11.3015C14.8574 10.305 14.4492 9.34921 13.7225 8.64452C12.9957 7.93983 12.0101 7.54394 10.9824 7.54394ZM8.722 11.3015C8.722 10.7202 8.96015 10.1627 9.38406 9.75161C9.80797 9.34055 10.3829 9.10961 10.9824 9.10961C11.5819 9.10961 12.1569 9.34055 12.5808 9.75161C13.0047 10.1627 13.2428 10.7202 13.2428 11.3015C13.2428 11.8829 13.0047 12.4404 12.5808 12.8515C12.1569 13.2626 11.5819 13.4935 10.9824 13.4935C10.3829 13.4935 9.80797 13.2626 9.38406 12.8515C8.96015 12.4404 8.722 11.8829 8.722 11.3015ZM19.375 17.8774L12.8599 24.5847C12.6183 24.8334 12.3269 25.0316 12.0035 25.167C11.6801 25.3025 11.3315 25.3723 10.9792 25.3723C10.6269 25.3723 10.2783 25.3025 9.95489 25.167C9.63147 25.0316 9.34004 24.8334 9.09852 24.5847L2.58335 17.8774H2.60789L2.59691 17.8648L2.58335 17.8492C0.910992 15.9314 -0.00453987 13.4999 1.69284e-05 10.9884C1.69284e-05 5.10838 4.91545 0.341858 10.9792 0.341858C17.0429 0.341858 21.9583 5.10838 21.9583 10.9884C21.9629 13.4999 21.0474 15.9314 19.375 17.8492L19.3615 17.8648L19.3505 17.8774H19.375ZM18.1202 16.8634C19.5593 15.2244 20.3478 13.1411 20.3438 10.9884C20.3438 5.97326 16.151 1.90753 10.9792 1.90753C5.80735 1.90753 1.6146 5.97326 1.6146 10.9884C1.61056 13.1411 2.39908 15.2244 3.8382 16.8634L4.03712 17.0908L10.2739 23.5106C10.3645 23.6039 10.4738 23.6782 10.5951 23.729C10.7164 23.7798 10.8471 23.806 10.9792 23.806C11.1113 23.806 11.242 23.7798 11.3633 23.729C11.4846 23.6782 11.5939 23.6039 11.6844 23.5106L17.9212 17.0908L18.1202 16.8634Z" />
  </symbol><!-- fill="#0A0F74" -->

  <symbol id="inst" viewBox="0 0 32 32" xmlns="http://www.w3.org/2000/svg">
    <path
      d="M17.4263 0C19.1748 0.00479989 20.0623 0.0143997 20.8285 0.0367991L21.13 0.0479988C21.4781 0.0607985 21.8216 0.0767981 22.2366 0.0959977C23.8903 0.175996 25.0186 0.44479 26.0087 0.839981C27.0344 1.24637 27.8986 1.79676 28.7627 2.68474C29.553 3.48455 30.1645 4.45204 30.5547 5.51987C30.9386 6.53905 31.1997 7.70062 31.2774 9.40458C31.2961 9.83017 31.3116 10.1838 31.324 10.5438L31.3334 10.8541C31.3567 11.6413 31.366 12.5549 31.3691 14.3549L31.3707 15.5484V17.6444C31.3745 18.8114 31.3626 19.9784 31.3349 21.1451L31.3256 21.4555C31.3132 21.8155 31.2976 22.1691 31.279 22.5947C31.2013 24.2986 30.937 25.4586 30.5547 26.4794C30.1657 27.5478 29.554 28.5155 28.7627 29.3145C27.9855 30.1278 27.0458 30.7573 26.0087 31.1593C25.0186 31.5545 23.8903 31.8233 22.2366 31.9033C21.8678 31.9211 21.4989 31.9371 21.13 31.9513L20.8285 31.9609C20.0623 31.9833 19.1748 31.9945 17.4263 31.9977L16.2669 31.9993H14.2324C13.0983 32.0033 11.9641 31.991 10.8303 31.9625L10.5288 31.9529C10.1598 31.9385 9.79094 31.9219 9.42216 31.9033C7.76849 31.8233 6.64014 31.5545 5.64855 31.1593C4.61138 30.7583 3.67194 30.1287 2.89605 29.3145C2.10503 28.515 1.49295 27.5475 1.1025 26.4794C0.718611 25.4602 0.457504 24.2986 0.379794 22.5947C0.362478 22.215 0.346936 21.8353 0.333167 21.4555L0.325397 21.1451C0.296756 19.9784 0.283803 18.8114 0.286541 17.6444V14.3549C0.282204 13.1879 0.293602 12.0208 0.320734 10.8541L0.331613 10.5438C0.344047 10.1838 0.359589 9.83017 0.378239 9.40458C0.45595 7.70062 0.717056 6.54065 1.10095 5.51987C1.49123 4.45094 2.10453 3.48316 2.89761 2.68474C3.6733 1.87111 4.61212 1.24155 5.64855 0.839981C6.64014 0.44479 7.76693 0.175996 9.42216 0.0959977C9.83558 0.0767981 10.1806 0.0607985 10.5288 0.0479988L10.8303 0.038399C11.9636 0.0099721 13.0972 -0.00229546 14.2309 0.00159985L17.4263 0ZM15.8286 7.99981C13.7676 7.99981 11.791 8.84265 10.3337 10.3429C8.8763 11.8432 8.05757 13.8779 8.05757 15.9996C8.05757 18.1213 8.8763 20.1561 10.3337 21.6563C11.791 23.1566 13.7676 23.9994 15.8286 23.9994C17.8896 23.9994 19.8662 23.1566 21.3236 21.6563C22.7809 20.1561 23.5996 18.1213 23.5996 15.9996C23.5996 13.8779 22.7809 11.8432 21.3236 10.3429C19.8662 8.84265 17.8896 7.99981 15.8286 7.99981ZM15.8286 11.1997C16.4409 11.1996 17.0472 11.3237 17.613 11.5648C18.1787 11.8059 18.6928 12.1594 19.1258 12.605C19.5588 13.0507 19.9024 13.5797 20.1368 14.1621C20.3712 14.7444 20.4919 15.3685 20.492 15.9988C20.4921 16.6292 20.3716 17.2533 20.1374 17.8357C19.9032 18.4181 19.5598 18.9473 19.1269 19.3931C18.694 19.8389 18.1801 20.1925 17.6144 20.4338C17.0487 20.6752 16.4425 20.7994 15.8302 20.7995C14.5936 20.7995 13.4076 20.2938 12.5332 19.3937C11.6588 18.4935 11.1675 17.2726 11.1675 15.9996C11.1675 14.7266 11.6588 13.5057 12.5332 12.6056C13.4076 11.7054 14.5936 11.1997 15.8302 11.1997M23.9897 5.59987C23.4745 5.59987 22.9803 5.81058 22.616 6.18564C22.2517 6.56071 22.047 7.0694 22.047 7.59982C22.047 8.13024 22.2517 8.63894 22.616 9.014C22.9803 9.38907 23.4745 9.59978 23.9897 9.59978C24.505 9.59978 24.9991 9.38907 25.3635 9.014C25.7278 8.63894 25.9325 8.13024 25.9325 7.59982C25.9325 7.0694 25.7278 6.56071 25.3635 6.18564C24.9991 5.81058 24.505 5.59987 23.9897 5.59987Z" />
  </symbol> <!-- fill="white" -->

  <symbol id="phone" viewBox="0 0 24 24" xmlns="http://www.w3.org/2000/svg">
    <path
      d="M22.9676 15.785L17.4317 13.3042C17.1808 13.1967 16.9072 13.1535 16.6354 13.1785C16.3637 13.2034 16.1025 13.2958 15.8754 13.4472C15.8524 13.462 15.8305 13.4784 15.8098 13.4964L12.9164 15.9573C12.8864 15.9737 12.853 15.9828 12.8188 15.9841C12.7846 15.9853 12.7507 15.9785 12.7195 15.9643C10.8598 15.0667 8.93322 13.1518 8.03204 11.3179C8.01704 11.2872 8.00924 11.2535 8.00924 11.2194C8.00924 11.1853 8.01704 11.1516 8.03204 11.121L10.5012 8.19129C10.5189 8.16963 10.5354 8.14694 10.5504 8.12332C10.6997 7.8954 10.7899 7.63388 10.8128 7.36239C10.8357 7.09089 10.7906 6.81796 10.6817 6.56824L8.21837 1.04168C8.07849 0.715442 7.83656 0.443371 7.52891 0.266304C7.22126 0.0892366 6.86448 0.0167242 6.51212 0.0596496C4.98075 0.260974 3.57507 1.01301 2.55777 2.17524C1.54048 3.33746 0.981179 4.83033 0.984389 6.37488C0.984389 15.5507 8.44923 23.0155 17.625 23.0155C19.1695 23.0185 20.6622 22.4591 21.8244 21.4418C22.9866 20.4246 23.7387 19.019 23.9402 17.4878C23.9831 17.1371 23.9116 16.7819 23.7363 16.4751C23.5611 16.1683 23.2915 15.9263 22.9676 15.785ZM17.625 21.6093C9.22501 21.6093 2.39064 14.7749 2.39064 6.37488C2.38672 5.17246 2.82072 4.00974 3.61155 3.10396C4.40238 2.19818 5.49594 1.61131 6.6879 1.45301H6.71486C6.76208 1.45389 6.80794 1.46902 6.84642 1.49641C6.88489 1.52381 6.9142 1.56219 6.93048 1.60652L9.40314 7.12723C9.41724 7.15792 9.42454 7.1913 9.42454 7.22508C9.42454 7.25886 9.41724 7.29224 9.40314 7.32293L6.92931 10.2596C6.91094 10.2807 6.8941 10.303 6.87892 10.3264C6.72412 10.5628 6.63297 10.835 6.61428 11.1169C6.5956 11.3988 6.65002 11.6808 6.77228 11.9354C7.81173 14.0636 9.95626 16.1917 12.1078 17.2311C12.364 17.3527 12.6473 17.4058 12.9301 17.3853C13.2129 17.3647 13.4856 17.2713 13.7215 17.1139C13.7438 17.0987 13.766 17.0823 13.7871 17.0647L16.6793 14.6038C16.7079 14.5884 16.7394 14.5794 16.7718 14.5774C16.8041 14.5754 16.8366 14.5804 16.8668 14.5921L22.4039 17.0729C22.4492 17.0922 22.4872 17.1252 22.5126 17.1672C22.5381 17.2093 22.5496 17.2583 22.5457 17.3073C22.3882 18.4998 21.8019 19.5942 20.8963 20.3859C19.9908 21.1776 18.8279 21.6125 17.625 21.6093Z" />
  </symbol> <!-- fill="white" -->

  <symbol id="tg" viewBox="0 0 32 32" xmlns="http://www.w3.org/2000/svg">
    <path
      d="M16 0C7.168 0 0 7.168 0 16C0 24.832 7.168 32 16 32C24.832 32 32 24.832 32 16C32 7.168 24.832 0 16 0ZM23.424 10.88C23.184 13.408 22.144 19.552 21.616 22.384C21.392 23.584 20.944 23.984 20.528 24.032C19.6 24.112 18.896 23.424 18 22.832C16.592 21.904 15.792 21.328 14.432 20.432C12.848 19.392 13.872 18.816 14.784 17.888C15.024 17.648 19.12 13.92 19.2 13.584C19.2111 13.5331 19.2096 13.4803 19.1957 13.4301C19.1818 13.3799 19.1558 13.3339 19.12 13.296C19.024 13.216 18.896 13.248 18.784 13.264C18.64 13.296 16.4 14.784 12.032 17.728C11.392 18.16 10.816 18.384 10.304 18.368C9.728 18.352 8.64 18.048 7.824 17.776C6.816 17.456 6.032 17.28 6.096 16.72C6.128 16.432 6.528 16.144 7.28 15.84C11.952 13.808 15.056 12.464 16.608 11.824C21.056 9.968 21.968 9.648 22.576 9.648C22.704 9.648 23.008 9.68 23.2 9.84C23.36 9.968 23.408 10.144 23.424 10.272C23.408 10.368 23.44 10.656 23.424 10.88Z" />
  </symbol> <!-- fill="white" -->

  <symbol id="time" viewBox="0 0 24 24" xmlns="http://www.w3.org/2000/svg">
    <g clip-path="url(#clip0_153_15)">
      <path
        d="M12 0C18.6276 0 24 5.3724 24 12C24 18.6276 18.6276 24 12 24C5.3724 24 0 18.6276 0 12C0 5.3724 5.3724 0 12 0ZM12 1.674C9.26137 1.674 6.63492 2.76191 4.69842 4.69842C2.76191 6.63492 1.674 9.26137 1.674 12C1.674 14.7386 2.76191 17.3651 4.69842 19.3016C6.63492 21.2381 9.26137 22.326 12 22.326C14.7386 22.326 17.3651 21.2381 19.3016 19.3016C21.2381 17.3651 22.326 14.7386 22.326 12C22.326 9.26137 21.2381 6.63492 19.3016 4.69842C17.3651 2.76191 14.7386 1.674 12 1.674ZM10.884 6.6972C11.346 6.6972 11.7204 7.0728 11.7204 7.5348V13.3956H17.5812C17.7977 13.4038 18.0026 13.4956 18.1529 13.6516C18.3032 13.8077 18.3871 14.0159 18.3871 14.2326C18.3871 14.4493 18.3032 14.6575 18.1529 14.8136C18.0026 14.9696 17.7977 15.0614 17.5812 15.0696H10.884C10.6619 15.0696 10.4488 14.9814 10.2917 14.8243C10.1346 14.6672 10.0464 14.4541 10.0464 14.232V7.536C10.0464 7.0728 10.4208 6.6972 10.884 6.6972Z" />
    </g>
    <defs>
      <clipPath id="clip0_153_15">
        <rect width="24" height="24" />
      </clipPath>
    </defs>
  </symbol> <!-- fill="white" -->

  <symbol id="vk" viewBox="0 0 33 32" xmlns="http://www.w3.org/2000/svg">
    <path
      d="M21.574 0H11.758C2.78843 0 0.657227 2.1328 0.657227 11.0832V20.9008C0.657227 29.8672 2.77403 32 11.7404 32H21.558C30.5244 32 32.6572 29.8832 32.6572 20.9168V11.1008C32.6572 2.1312 30.5404 0 21.574 0ZM26.4908 22.832H24.1564C23.2732 22.832 23.0076 22.1168 21.4236 20.5328C20.0412 19.2 19.4572 19.0336 19.1068 19.0336C18.6236 19.0336 18.4908 19.1664 18.4908 19.8336V21.9328C18.4908 22.5008 18.3068 22.8336 16.8236 22.8336C15.3842 22.7369 13.9883 22.2995 12.751 21.5576C11.5137 20.8158 10.4703 19.7905 9.70683 18.5664C7.8943 16.3104 6.63313 13.6626 6.02363 10.8336C6.02363 10.4832 6.15643 10.1664 6.82363 10.1664H9.15803C9.75803 10.1664 9.97403 10.4336 10.2076 11.0496C11.3404 14.384 13.2732 17.2832 14.0572 17.2832C14.358 17.2832 14.4892 17.1504 14.4892 16.4V12.9664C14.39 11.4 13.558 11.2672 13.558 10.7008C13.5687 10.5514 13.6372 10.4121 13.7489 10.3123C13.8606 10.2125 14.0068 10.1602 14.1564 10.1664H17.8236C18.3244 10.1664 18.4908 10.416 18.4908 11.016V15.6496C18.4908 16.1504 18.7068 16.3168 18.8572 16.3168C19.158 16.3168 19.39 16.1504 19.9404 15.6C21.1226 14.1583 22.0885 12.5521 22.8076 10.832C22.8811 10.6254 23.0202 10.4485 23.2037 10.3283C23.3871 10.2081 23.6048 10.1513 23.8236 10.1664H26.158C26.8572 10.1664 27.006 10.5168 26.8572 11.016C26.0084 12.9175 24.9581 14.7225 23.7244 16.4C23.4732 16.784 23.3724 16.984 23.7244 17.4336C23.9564 17.784 24.774 18.4672 25.3244 19.1168C26.1243 19.9146 26.7885 20.8377 27.2908 21.8496C27.4908 22.4992 27.1564 22.832 26.4908 22.832Z" />
  </symbol> <!-- fill="white" -->

  <symbol id="error" xmlns="http://www.w3.org/2000/svg" xmlns:xlink="http://www.w3.org/1999/xlink" x="0px" y="0px" viewBox="0 0 50 50" style="enable-background:new 0 0 50 50;" xml:space="preserve">
    <circle style="fill:#D75A4A;" cx="25" cy="25" r="25"></circle><polyline style="fill:none;stroke:#FFFFFF;stroke-width:2;stroke-linecap:round;stroke-miterlimit:10;" points="16,34 25,25 34,16 "></polyline><polyline style="fill:none;stroke:#FFFFFF;stroke-width:2;stroke-linecap:round;stroke-miterlimit:10;" points="16,16 25,25 34,34 "></polyline>
  </symbol>

   <symbol id="okay" xmlns="http://www.w3.org/2000/svg" xmlns:xlink="http://www.w3.org/1999/xlink" x="0px" y="0px" viewBox="0 0 517.062 517.062" style="enable-background:new 0 0 517.062 517.062;" xml:space="preserve">
    <circle style="fill:#3DB39E;" cx="256" cy="258.531" r="256"></circle><path style="fill:#37A18E;" d="M499.43,179.284c-7.25-22.287-17.449-43.228-30.172-62.362l-224.087,233.4l0.451,25.974l10.578-0.067 L499.43,179.284L499.43,179.284z"></path><path style="fill:#F8F8F8;" d="M512.389,103.303l-45.65-45.102c-6.231-6.159-16.338-6.159-22.569,0L249.032,259.202l-84.152-83.149 c-6.241-6.159-16.338-6.159-22.574,0l-40.463,39.982c-6.231,6.154-6.231,16.138,0,22.292l135.06,133.432 c3.599,3.558,8.479,4.992,13.169,4.439c4.69,0.548,9.569-0.881,13.169-4.439l249.149-246.159 C518.62,119.441,518.62,109.462,512.389,103.303L512.389,103.303z"></path><path style="fill:#EBEBEB;" d="M263.24,371.76l249.149-246.159c6.231-6.159,6.231-16.138,0-22.298l-7.45-7.363L248.648,348.024 L107.5,210.439l-5.652,5.591c-6.231,6.154-6.231,16.138,0,22.292L236.902,371.76c3.599,3.558,8.479,4.992,13.169,4.439 C254.761,376.752,259.64,375.324,263.24,371.76L263.24,371.76z"></path>
  </symbol>

  <symbol id="exit" viewBox="0 0 23 20" xmlns="http://www.w3.org/2000/svg">
    <rect x="1.26208" width="28" height="2" transform="rotate(39.127 1.26208 0)"/>
    <rect width="28" height="2" transform="matrix(-0.775749 0.631041 0.631041 0.775749 21.7209 0)"/>
  </symbol>
 
</svg>