<svg xmlns="http://www.w3.org/2000/svg" xmlns:xlink="http://www.w3.org/1999/xlink">
  
  <symbol id="whatsapp" viewBox="0 0 32 32" xmlns="http://www.w3.org/2000/svg">
    <path d="M27.8999 8.48004C23.7199 2.00004 15.1599 0.0800357 8.5399 4.10004C2.0799 8.12004 -9.56059e-05 16.88 4.1799 23.34L4.5199 23.86L3.1199 29.1L8.3599 27.7L8.8799 28.04C11.1399 29.26 13.5999 29.96 16.0399 29.96C18.6599 29.96 21.2799 29.26 23.5399 27.86C29.9999 23.66 31.9199 15.08 27.8999 8.44004V8.48004ZM24.2399 21.96C23.5399 23 22.6599 23.7 21.4399 23.88C20.7399 23.88 19.8599 24.22 16.3799 22.84C13.4199 21.44 10.9599 19.16 9.2199 16.54C8.1799 15.32 7.6399 13.74 7.4799 12.16C7.4799 10.76 7.9999 9.54004 8.8799 8.66004C9.2199 8.32004 9.5799 8.14004 9.9199 8.14004H10.7999C11.1399 8.14004 11.4999 8.14004 11.6799 8.84004C12.0199 9.72004 12.8999 11.82 12.8999 12C13.0799 12.18 12.9999 13.52 12.1999 14.28C11.7599 14.78 11.6799 14.8 11.8599 15.16C12.5599 16.2 13.4399 17.26 14.2999 18.14C15.3399 19.02 16.3999 19.72 17.6199 20.24C17.9599 20.42 18.3199 20.42 18.4999 20.06C18.6799 19.72 19.5399 18.84 19.8999 18.48C20.2399 18.14 20.4199 18.14 20.7799 18.3L23.5799 19.7C23.9199 19.88 24.2799 20.04 24.4599 20.22C24.6399 20.74 24.6399 21.44 24.2799 21.96H24.2399Z"/>
  </symbol>

  <symbol id="vk" viewBox="0 0 32 32" xmlns="http://www.w3.org/2000/svg">
    <g clip-path="url(#clip0_22_435)">
    <path d="M12.652 0.00546484L13.624 0.00146484H18.376L19.3493 0.00546484L20.568 0.0187982L21.1453 0.0281315L21.7027 0.0427982L22.24 0.0614648L22.7573 0.0827982L23.256 0.110798L23.736 0.144131L24.196 0.184131L24.64 0.228132C26.96 0.489465 28.5507 1.04946 29.7507 2.24946C30.9507 3.44946 31.5107 5.0388 31.772 7.36013L31.8173 7.80413L31.856 8.26546L31.8893 8.74546L31.916 9.2428L31.9493 10.0268L31.9653 10.5735L31.9827 11.4321L31.9947 12.6521L32 13.9588L31.9987 18.3761L31.9947 19.3495L31.9813 20.5681L31.972 21.1455L31.9573 21.7028L31.9387 22.2401L31.9173 22.7575L31.8893 23.2561L31.856 23.7361L31.816 24.1961L31.772 24.6401C31.5107 26.9601 30.9507 28.5508 29.7507 29.7508C28.5507 30.9508 26.9613 31.5108 24.64 31.7721L24.196 31.8175L23.7347 31.8561L23.2547 31.8895L22.7573 31.9161L21.9733 31.9495L21.4267 31.9655L20.568 31.9828L19.348 31.9948L18.0413 32.0001L13.624 31.9988L12.6507 31.9948L11.432 31.9815L10.8547 31.9721L10.2973 31.9575L9.76 31.9388L9.24267 31.9175L8.744 31.8895L8.264 31.8561L7.804 31.8161L7.36 31.7721C5.04 31.5108 3.44933 30.9508 2.24933 29.7508C1.04933 28.5508 0.489333 26.9615 0.228 24.6401L0.182667 24.1961L0.144 23.7348L0.110667 23.2548L0.084 22.7575L0.0506667 21.9735L0.0346667 21.4268L0.0173333 20.5681L0.00533333 19.3481L0 18.0415L0.00133333 13.6241L0.00533333 12.6508L0.0186667 11.4321L0.028 10.8548L0.0426667 10.2975L0.0613333 9.76013L0.0826667 9.2428L0.110667 8.74413L0.144 8.26413L0.184 7.80413L0.228 7.36013C0.489333 5.04013 1.04933 3.44946 2.24933 2.24946C3.44933 1.04946 5.03867 0.489465 7.36 0.228132L7.804 0.182798L8.26533 0.144131L8.74533 0.110798L9.24267 0.0841315L10.0267 0.0507982L10.5733 0.0347982L11.432 0.0174648L12.652 0.00546484ZM9.05333 9.73346H5.4C5.57333 18.0535 9.73333 23.0535 17.0267 23.0535H17.44V18.2935C20.12 18.5601 22.1467 20.5201 22.96 23.0535H26.7467C25.7067 19.2668 22.9733 17.1735 21.2667 16.3735C22.9733 15.3868 25.3733 12.9868 25.9467 9.73346H22.5067C21.76 12.3735 19.5467 14.7735 17.44 15.0001V9.73346H14V18.9601C11.8667 18.4268 9.17333 15.8401 9.05333 9.73346Z"/>
    </g>
    <defs>
    <clipPath id="clip0_22_435">
    <rect width="32" height="32" fill="white"/>
    </clipPath>
    </defs>
  </symbol>

  <symbol id="telegram" viewBox="0 0 32 32" xmlns="http://www.w3.org/2000/svg">
    <g clip-path="url(#clip0_22_436)">
      <path d="M16 0.5C7.437 0.5 0.5 7.438 0.5 16C0.5 24.562 7.438 31.5 16 31.5C24.563 31.5 31.5 24.562 31.5 16C31.5 7.438 24.562 0.5 16 0.5ZM23.613 11.119L21.069 23.107C20.881 23.957 20.375 24.163 19.669 23.763L15.794 20.907L13.925 22.707C13.719 22.913 13.544 23.088 13.144 23.088L13.419 19.144L20.6 12.656C20.913 12.381 20.531 12.225 20.118 12.5L11.243 18.087L7.418 16.893C6.587 16.631 6.568 16.062 7.593 15.662L22.537 9.899C23.231 9.649 23.837 10.068 23.612 11.118L23.613 11.119Z"/>
      </g>
      <defs>
      <clipPath id="clip0_22_436">
      <rect width="32" height="32" fill="white"/>
      </clipPath>
    </defs>
  </symbol>

  <symbol id="review" width="18" height="18" viewBox="0 0 18 18" fill="none" xmlns="http://www.w3.org/2000/svg">
    <path d="M7.77711 1.58008C4.58746 1.80421 0.00252 2.31346 0 8.56022V16.4198H7.11756V8.01062H4.75419C4.60448 5.76523 6.45345 5.18543 8.46411 4.74037L7.77711 1.58008ZM17.313 1.58008C14.1233 1.80421 9.53838 2.31347 9.53587 8.56022V16.4198H16.6535V8.01062H14.2901C14.1403 5.76523 15.9893 5.18543 18 4.74037L17.313 1.58008Z" fill="#FFBABA"/>
  </symbol>

  <symbol id="arrow"  viewBox="0 0 55 55" xmlns="http://www.w3.org/2000/svg">
    <circle cx="27.5" cy="27.5" r="27.5"/>
    <path d="M30 18L22 27L30 36" stroke="#141414"/>
  </symbol>

  <symbol id="upload" viewBox="0 0 38 36" xmlns="http://www.w3.org/2000/svg">
    <rect width="38" height="36" rx="18" fill="white"/>
    <path d="M19.0175 10.5386C20.0044 9.55338 21.3428 8.99994 22.7383 9C24.1339 9.00006 25.4722 9.55362 26.459 10.5389C27.4457 11.5242 28.0001 12.8605 28 14.2538C27.9999 15.6472 27.4455 16.9834 26.4587 17.9686L18.3952 26.0186C18.0944 26.3267 17.7352 26.5721 17.3386 26.7406C16.942 26.9091 16.5159 26.9972 16.0849 26.9999C15.6539 27.0027 15.2267 26.9199 14.828 26.7565C14.4293 26.5931 14.067 26.3523 13.7623 26.048C13.4575 25.7437 13.2163 25.3821 13.0527 24.984C12.889 24.5859 12.8061 24.1594 12.8089 23.729C12.8116 23.2987 12.8999 22.8733 13.0686 22.4773C13.2373 22.0813 13.4831 21.7228 13.7917 21.4224L20.9532 14.2709C21.1039 14.1203 21.3084 14.0357 21.5216 14.0357C21.7348 14.0356 21.9393 14.1201 22.0901 14.2706C22.2409 14.4211 22.3257 14.6252 22.3257 14.8381C22.3258 15.051 22.2411 15.2551 22.0904 15.4057L14.927 22.5559C14.7739 22.7087 14.6525 22.8902 14.5696 23.0899C14.4867 23.2896 14.4441 23.5037 14.4441 23.7199C14.4441 24.1564 14.6178 24.5751 14.927 24.8838C15.2362 25.1926 15.6556 25.366 16.0928 25.366C16.5301 25.366 16.9495 25.1926 17.2587 24.8838L25.3221 16.8332C25.6615 16.4943 25.9307 16.0921 26.1143 15.6494C26.298 15.2066 26.3925 14.7321 26.3925 14.2529C26.3925 13.7738 26.298 13.2993 26.1143 12.8565C25.9307 12.4138 25.6615 12.0116 25.3221 11.6727C24.9827 11.3339 24.5798 11.0651 24.1364 10.8817C23.693 10.6983 23.2177 10.604 22.7378 10.604C22.2578 10.604 21.7826 10.6983 21.3392 10.8817C20.8957 11.0651 20.4928 11.3339 20.1535 11.6727L11.372 20.4423C11.2213 20.5928 11.0168 20.6773 10.8037 20.6773C10.5905 20.6773 10.3861 20.5928 10.2354 20.4423C10.0847 20.2918 10 20.0877 10 19.8749C10 19.6621 10.0847 19.458 10.2354 19.3075L19.0175 10.5386Z"/>
  </symbol>

  <symbol id="okay" xmlns="http://www.w3.org/2000/svg" xmlns:xlink="http://www.w3.org/1999/xlink" x="0px" y="0px" viewBox="0 0 517.062 517.062" style="enable-background:new 0 0 517.062 517.062;" xml:space="preserve">
    <circle style="fill:#3DB39E;" cx="256" cy="258.531" r="256"></circle><path style="fill:#37A18E;" d="M499.43,179.284c-7.25-22.287-17.449-43.228-30.172-62.362l-224.087,233.4l0.451,25.974l10.578-0.067 L499.43,179.284L499.43,179.284z"></path><path style="fill:#F8F8F8;" d="M512.389,103.303l-45.65-45.102c-6.231-6.159-16.338-6.159-22.569,0L249.032,259.202l-84.152-83.149 c-6.241-6.159-16.338-6.159-22.574,0l-40.463,39.982c-6.231,6.154-6.231,16.138,0,22.292l135.06,133.432 c3.599,3.558,8.479,4.992,13.169,4.439c4.69,0.548,9.569-0.881,13.169-4.439l249.149-246.159 C518.62,119.441,518.62,109.462,512.389,103.303L512.389,103.303z"></path><path style="fill:#EBEBEB;" d="M263.24,371.76l249.149-246.159c6.231-6.159,6.231-16.138,0-22.298l-7.45-7.363L248.648,348.024 L107.5,210.439l-5.652,5.591c-6.231,6.154-6.231,16.138,0,22.292L236.902,371.76c3.599,3.558,8.479,4.992,13.169,4.439 C254.761,376.752,259.64,375.324,263.24,371.76L263.24,371.76z"></path>
  </symbol>

  <symbol id="error" xmlns="http://www.w3.org/2000/svg" xmlns:xlink="http://www.w3.org/1999/xlink" x="0px" y="0px" viewBox="0 0 50 50" style="enable-background:new 0 0 50 50;" xml:space="preserve">
    <circle style="fill:#D75A4A;" cx="25" cy="25" r="25"></circle><polyline style="fill:none;stroke:#FFFFFF;stroke-width:2;stroke-linecap:round;stroke-miterlimit:10;" points="16,34 25,25 34,16 "></polyline><polyline style="fill:none;stroke:#FFFFFF;stroke-width:2;stroke-linecap:round;stroke-miterlimit:10;" points="16,16 25,25 34,34 "></polyline>
  </symbol>
 
</svg>
