<svg width="107" height="74" viewBox="0 0 107 74" fill="none" xmlns="http://www.w3.org/2000/svg">
<circle cx="45.5" cy="39.5" r="34.5" fill="#FFE2E2"/>
<path d="M24.2393 52.0479H22.5645L9.50098 23.7676L9.11816 45.2051C9.11816 46.9596 9.35742 48.1878 9.83594 48.8896C10.3145 49.5915 11.3672 49.9743 12.9941 50.0381V51.7129C12.2285 51.7129 11.2715 51.7129 10.123 51.7129C9.00651 51.681 7.84212 51.665 6.62988 51.665C5.41764 51.665 4.2373 51.681 3.08887 51.7129C1.97233 51.7129 1.03125 51.7288 0.265625 51.7607V49.9902C1.38216 49.9583 2.30729 49.8945 3.04102 49.7988C3.77474 49.6712 4.36491 49.432 4.81152 49.0811C5.29004 48.762 5.625 48.2835 5.81641 47.6455C6.03971 47.0075 6.18327 46.1462 6.24707 45.0615L6.77344 21.6621C6.77344 20.1309 6.43848 19.0622 5.76855 18.4561C5.09863 17.8499 3.9502 17.5469 2.32324 17.5469V15.7285C2.83366 15.7923 3.45573 15.8402 4.18945 15.8721C4.95508 15.8721 5.7207 15.8721 6.48633 15.8721C7.25195 15.8721 7.96973 15.8721 8.63965 15.8721C9.30957 15.8402 9.81999 15.7923 10.1709 15.7285L24.1436 45.9229L37.7334 15.7764C38.1162 15.8402 38.6904 15.8721 39.4561 15.8721C40.2536 15.8721 41.083 15.8721 41.9443 15.8721C42.8057 15.8721 43.6191 15.8561 44.3848 15.8242C45.1504 15.7923 45.7087 15.7445 46.0596 15.6807V17.5469C44.2731 17.5469 43.0768 17.8659 42.4707 18.5039C41.8965 19.1419 41.6094 20.1787 41.6094 21.6143L42.1357 45.0615C42.1676 46.0824 42.2474 46.9118 42.375 47.5498C42.5345 48.1878 42.8216 48.6823 43.2363 49.0332C43.6191 49.416 44.1615 49.6712 44.8633 49.7988C45.597 49.9264 46.57 49.9902 47.7822 49.9902V51.7129C47.0166 51.7129 45.932 51.7129 44.5283 51.7129C43.1566 51.7129 41.7051 51.7129 40.1738 51.7129C38.6426 51.7129 37.1751 51.7129 35.7715 51.7129C34.3678 51.7129 33.3151 51.7129 32.6133 51.7129V49.9902C33.6979 49.9902 34.5752 49.9264 35.2451 49.7988C35.9469 49.6712 36.4893 49.432 36.8721 49.0811C37.223 48.7301 37.4622 48.2357 37.5898 47.5977C37.7493 46.9596 37.8291 46.1143 37.8291 45.0615L37.542 22.8584L24.2393 52.0479Z" fill="black"/>
<path d="M58.3408 36.71C58.3408 35.8486 58.277 35.1468 58.1494 34.6045C58.0537 34.0622 57.8464 33.6475 57.5273 33.3604C57.2083 33.0413 56.7458 32.834 56.1396 32.7383C55.5335 32.6107 54.7201 32.5469 53.6992 32.5469V30.8242C54.6562 30.8561 55.7409 30.8721 56.9531 30.8721C58.1654 30.8721 59.3936 30.8721 60.6377 30.8721C61.9137 30.8721 63.1738 30.8721 64.418 30.8721C65.694 30.8721 66.8903 30.8561 68.0068 30.8242C71.165 30.8242 73.9723 31.3346 76.4287 32.3555C78.8851 33.3444 80.9587 34.6683 82.6494 36.3271C84.3402 37.986 85.6322 39.9001 86.5254 42.0693C87.4186 44.2067 87.8652 46.4238 87.8652 48.7207C87.8652 50.9857 87.4505 53.2028 86.6211 55.3721C85.7917 57.5413 84.5316 59.4554 82.8408 61.1143C81.1501 62.805 79.0127 64.1608 76.4287 65.1816C73.8766 66.2025 70.8779 66.7129 67.4326 66.7129C66.5075 66.7129 65.4388 66.7129 64.2266 66.7129C63.0462 66.681 61.818 66.665 60.542 66.665C59.2979 66.665 58.0697 66.681 56.8574 66.7129C55.6452 66.7129 54.5924 66.7129 53.6992 66.7129V64.8945C54.7201 64.8945 55.5335 64.8467 56.1396 64.751C56.7777 64.6553 57.2562 64.4479 57.5752 64.1289C57.8942 63.8099 58.1016 63.3633 58.1973 62.7891C58.293 62.2148 58.3408 61.4492 58.3408 60.4922V36.71ZM62.6953 60.54C62.6953 61.4971 62.7432 62.2467 62.8389 62.7891C62.9665 63.3314 63.2376 63.7461 63.6523 64.0332C64.0352 64.3203 64.5934 64.4958 65.3271 64.5596C66.0609 64.6234 67.0339 64.6553 68.2461 64.6553C70.862 64.6553 73.111 64.2246 74.9932 63.3633C76.8753 62.502 78.4225 61.3376 79.6348 59.8701C80.847 58.4027 81.7402 56.7119 82.3145 54.7979C82.8887 52.8519 83.1758 50.7943 83.1758 48.625C83.1758 43.6803 81.7243 39.8203 78.8213 37.0449C75.9183 34.2695 71.9466 32.8818 66.9062 32.8818C66.332 32.8818 65.8376 32.8978 65.4229 32.9297C65.0081 32.9297 64.6253 32.9456 64.2744 32.9775C63.9554 32.9775 63.6683 32.9935 63.4131 33.0254C63.1579 33.0254 62.9186 33.0254 62.6953 33.0254V60.54Z" fill="black"/>
<path d="M36.0686 62.86C36.9016 63.007 37.6366 62.762 38.3716 62.615C42.8796 61.733 47.4366 61.292 52.0426 61.341C55.3256 61.341 58.6086 61.439 61.8426 61.586C63.8516 61.635 65.8116 61.782 67.7716 62.125C68.4576 62.223 69.0456 62.419 69.3396 63.056C69.4866 63.399 69.4376 63.595 69.0456 63.595C68.7516 63.644 68.4086 63.644 68.0656 63.595C63.9496 63.301 59.8336 63.399 55.6686 63.497C51.4546 63.644 47.2406 64.134 43.0266 64.722C41.3116 64.967 39.5966 65.163 37.9306 65.359C36.9506 65.457 36.0196 65.359 35.1376 65.065C33.4716 64.526 32.8346 63.448 33.0796 61.684C33.4226 59.724 34.1576 57.862 34.7946 56C35.6766 53.55 36.6076 51.1 37.5876 48.65C37.7346 48.356 37.9306 48.013 37.9306 47.621C37.4896 47.474 36.9996 47.621 36.6076 47.327C35.5786 46.445 35.4316 45.122 36.4116 44.093C36.7056 43.799 36.9996 43.554 37.3426 43.358C37.8326 43.064 38.3226 42.77 38.8616 42.672C40.0376 42.427 40.5766 41.692 41.0176 40.614C43.2716 35.273 45.7706 30.03 48.4166 24.885C48.5636 24.591 48.7596 24.346 48.8086 23.905C47.4856 24.15 46.1626 24.297 44.8886 24.64C44.2026 24.836 43.7616 24.738 43.3696 24.248C42.9776 23.758 42.8796 23.17 43.1736 22.533C43.4186 21.994 43.7616 21.602 44.2516 21.259C44.8886 20.72 45.6726 20.328 46.4566 19.985C48.0246 19.25 49.6416 18.858 51.3076 18.515C51.6506 18.466 51.9936 18.417 52.3366 18.221C52.4836 18.074 52.6796 18.025 52.8756 18.074C54.5416 18.27 56.1586 17.927 57.7756 17.78C61.9896 17.437 66.2036 17.29 70.3686 17.535C71.5936 17.584 72.7696 17.731 73.8966 18.074C74.5336 18.27 75.1706 18.515 75.7096 18.907C76.3956 19.348 76.4936 19.985 76.3956 20.72C76.3466 21.112 76.1016 21.259 75.7586 21.112C72.1816 19.74 68.4576 20.475 64.7826 20.72C61.9406 20.867 59.1476 21.357 56.4036 21.896C56.3546 21.945 56.2566 21.945 56.2076 21.945C55.4236 22.043 54.9826 22.435 54.6886 23.219C53.3656 26.6 51.7486 29.883 50.1316 33.215C49.0046 35.518 47.8776 37.772 46.7996 40.075C46.6526 40.32 46.4566 40.565 46.5056 40.908C46.8976 41.055 47.2896 40.957 47.6326 40.908C50.2786 40.467 52.9246 40.173 55.5706 39.928C57.7266 39.781 59.9316 39.585 62.1366 39.732C62.9206 39.781 63.6556 39.879 64.4396 40.026C65.0766 40.124 65.5666 41.104 65.3216 41.741C65.2236 41.986 65.0276 42.035 64.7826 42.035C59.3436 41.741 54.0516 42.917 48.7106 43.946C47.4856 44.191 46.3096 44.534 45.0846 44.779C44.6436 44.926 44.3006 45.122 44.0556 45.612C41.8016 50.316 39.4496 55.02 37.1466 59.724C36.7056 60.655 36.2646 61.684 36.0686 62.86ZM41.7036 46.004C39.3516 50.757 37.0976 55.51 35.3826 60.508C37.4896 55.657 39.7926 50.904 41.7036 46.004Z" fill="#FFA0A0"/>
<path d="M49.0127 8.65077C49.0617 8.20977 49.1107 7.71977 49.2087 7.22977C49.5027 5.51477 51.2667 4.53477 52.8347 5.22077C54.6477 6.00477 55.0887 7.91577 53.8637 9.53277C53.0307 10.6598 51.9037 11.1008 50.5807 11.0518C49.8947 11.0028 49.4537 10.6108 49.2087 10.0228C49.0617 9.58177 48.9637 9.14077 49.0127 8.65077Z" fill="#FFA0A0"/>
<path d="M64.0127 6.65077C64.0617 6.20977 64.1107 5.71977 64.2087 5.22977C64.5027 3.51477 66.2667 2.53477 67.8347 3.22077C69.6477 4.00477 70.0887 5.91577 68.8637 7.53277C68.0307 8.65977 66.9037 9.10077 65.5807 9.05177C64.8947 9.00277 64.4537 8.61077 64.2087 8.02277C64.0617 7.58177 63.9637 7.14077 64.0127 6.65077Z" fill="#FFA0A0"/>
</svg>
